<svg width="40" height="39" viewBox="0 0 40 39" fill="none" xmlns="http://www.w3.org/2000/svg">
<path d="M40 3.32663C40 2.97926 39.8664 2.67198 39.5992 2.40478L37.5952 0.400774C37.328 0.133573 37.0207 -2.72393e-05 36.6733 -2.72393e-05C36.326 -2.72393e-05 36.0187 0.133573 35.7515 0.400774L20 16.1523L4.2485 0.400774C3.9813 0.133573 3.67401 -2.72393e-05 3.32665 -2.72393e-05C2.97929 -2.72393e-05 2.67201 0.133573 2.40481 0.400774L0.400802 2.40478C0.133601 2.67198 0 2.97926 0 3.32663C0 3.67399 0.133601 3.98127 0.400802 4.24847L19.0782 22.9258C19.3454 23.193 19.6526 23.3266 20 23.3266C20.3474 23.3266 20.6546 23.193 20.9218 22.9258L39.5992 4.24847C39.8664 3.98127 40 3.67399 40 3.32663ZM40 18.7174C40 18.37 39.8664 18.0628 39.5992 17.7956L37.5952 15.7916C37.328 15.5244 37.0207 15.3908 36.6733 15.3908C36.326 15.3908 36.0187 15.5244 35.7515 15.7916L20 31.5431L4.2485 15.7916C3.9813 15.5244 3.67401 15.3908 3.32665 15.3908C2.97929 15.3908 2.67201 15.5244 2.40481 15.7916L0.400802 17.7956C0.133601 18.0628 0 18.37 0 18.7174C0 19.0648 0.133601 19.3721 0.400802 19.6393L19.0782 38.3166C19.3454 38.5838 19.6526 38.7174 20 38.7174C20.3474 38.7174 20.6546 38.5838 20.9218 38.3166L39.5992 19.6393C39.8664 19.3721 40 19.0648 40 18.7174Z" fill="white"/>
</svg>
