<svg width="42" height="42" viewBox="0 0 42 42" fill="none" xmlns="http://www.w3.org/2000/svg">
<path d="M36.75 2.625C37.4462 2.625 38.1139 2.90156 38.6062 3.39384C39.0984 3.88613 39.375 4.55381 39.375 5.25V36.75C39.375 37.4462 39.0984 38.1139 38.6062 38.6062C38.1139 39.0984 37.4462 39.375 36.75 39.375H5.25C4.55381 39.375 3.88613 39.0984 3.39384 38.6062C2.90156 38.1139 2.625 37.4462 2.625 36.75V5.25C2.625 4.55381 2.90156 3.88613 3.39384 3.39384C3.88613 2.90156 4.55381 2.625 5.25 2.625H36.75ZM5.25 0C3.85761 0 2.52226 0.553124 1.53769 1.53769C0.553124 2.52226 0 3.85761 0 5.25L0 36.75C0 38.1424 0.553124 39.4777 1.53769 40.4623C2.52226 41.4469 3.85761 42 5.25 42H36.75C38.1424 42 39.4777 41.4469 40.4623 40.4623C41.4469 39.4777 42 38.1424 42 36.75V5.25C42 3.85761 41.4469 2.52226 40.4623 1.53769C39.4777 0.553124 38.1424 0 36.75 0L5.25 0Z" fill="white"/>
<path d="M28.7962 13.0463C29.1636 12.6821 29.6595 12.4771 30.1768 12.4757C30.6941 12.4743 31.1911 12.6765 31.5605 13.0386C31.9299 13.4008 32.1419 13.8937 32.1507 14.4109C32.1595 14.9281 31.9644 15.428 31.6076 15.8025L21.1286 28.9013C20.9485 29.0952 20.7311 29.2509 20.4895 29.359C20.2479 29.467 19.9869 29.5252 19.7223 29.5301C19.4576 29.535 19.1947 29.4865 18.9492 29.3875C18.7038 29.2885 18.4808 29.1409 18.2936 28.9538L11.3505 22.008C11.1571 21.8278 11.0019 21.6104 10.8943 21.3689C10.7867 21.1274 10.7288 20.8667 10.7242 20.6024C10.7195 20.338 10.7681 20.0755 10.8672 19.8303C10.9662 19.5852 11.1136 19.3625 11.3005 19.1755C11.4875 18.9886 11.7101 18.8412 11.9553 18.7422C12.2004 18.6432 12.463 18.5945 12.7274 18.5992C12.9917 18.6039 13.2524 18.6617 13.4939 18.7693C13.7354 18.8769 13.9527 19.0321 14.133 19.2255L19.6297 24.7196L28.7464 13.104C28.7626 13.0837 28.7802 13.0644 28.7989 13.0463H28.7962Z" fill="white"/>
</svg>
