<svg width="46" height="35" viewBox="0 0 46 35" fill="none" xmlns="http://www.w3.org/2000/svg">
<path d="M42.498 9.99793L32.6667 19.8292L29.6875 16.8729L26.4563 20.1271L32.6438 26.3146L45.7521 13.2521L42.498 9.99793ZM5.16671 9.33334C5.13848 10.5448 5.3563 11.7495 5.80698 12.8744C6.25766 13.9993 6.93183 15.0211 7.78872 15.878C8.64561 16.7349 9.66742 17.4091 10.7923 17.8597C11.9172 18.3104 13.1219 18.5282 14.3334 18.5C15.5449 18.5282 16.7495 18.3104 17.8744 17.8597C18.9993 17.4091 20.0211 16.7349 20.878 15.878C21.7349 15.0211 22.4091 13.9993 22.8598 12.8744C23.3104 11.7495 23.5283 10.5448 23.5 9.33334C23.5283 8.12184 23.3104 6.9172 22.8598 5.7923C22.4091 4.66739 21.7349 3.64558 20.878 2.78869C20.0211 1.9318 18.9993 1.25762 17.8744 0.806947C16.7495 0.356269 15.5449 0.138454 14.3334 0.166676C13.1219 0.138454 11.9172 0.356269 10.7923 0.806947C9.66742 1.25762 8.64561 1.9318 7.78872 2.78869C6.93183 3.64558 6.25766 4.66739 5.80698 5.7923C5.3563 6.9172 5.13848 8.12184 5.16671 9.33334ZM18.9167 9.33334C18.9462 9.94304 18.8478 10.5522 18.6279 11.1216C18.408 11.691 18.0714 12.2081 17.6398 12.6398C17.2082 13.0714 16.691 13.408 16.1216 13.6279C15.5522 13.8478 14.9431 13.9462 14.3334 13.9167C13.7237 13.9462 13.1146 13.8478 12.5451 13.6279C11.9757 13.408 11.4586 13.0714 11.027 12.6398C10.5953 12.2081 10.2588 11.691 10.0388 11.1216C9.81894 10.5522 9.72057 9.94304 9.75004 9.33334C9.72057 8.72364 9.81894 8.11452 10.0388 7.5451C10.2588 6.97568 10.5953 6.45855 11.027 6.02692C11.4586 5.5953 11.9757 5.25872 12.5451 5.03882C13.1146 4.81891 13.7237 4.72053 14.3334 4.75001C14.9431 4.72053 15.5522 4.81891 16.1216 5.03882C16.691 5.25872 17.2082 5.5953 17.6398 6.02692C18.0714 6.45855 18.408 6.97568 18.6279 7.5451C18.8478 8.11452 18.9462 8.72364 18.9167 9.33334V9.33334ZM5.16671 32.25C5.16671 30.4266 5.89104 28.678 7.18035 27.3887C8.46966 26.0993 10.2183 25.375 12.0417 25.375H16.625C18.4484 25.375 20.1971 26.0993 21.4864 27.3887C22.7757 28.678 23.5 30.4266 23.5 32.25V34.5417H28.0834V32.25C28.0834 30.7453 27.787 29.2553 27.2112 27.8651C26.6353 26.4749 25.7913 25.2117 24.7273 24.1477C23.6633 23.0837 22.4001 22.2397 21.01 21.6639C19.6198 21.0881 18.1298 20.7917 16.625 20.7917H12.0417C9.00277 20.7917 6.0883 21.9989 3.93944 24.1477C1.79059 26.2966 0.583374 29.2111 0.583374 32.25V34.5417H5.16671V32.25Z" fill="rgb(187, 255, 75)"/>
</svg>
