<svg width="140" height="140" viewBox="0 0 140 140" fill="none" xmlns="http://www.w3.org/2000/svg">
<path d="M91.875 100.625C96.7075 100.625 100.625 96.7075 100.625 91.875C100.625 87.0425 96.7075 83.125 91.875 83.125C87.0425 83.125 83.125 87.0425 83.125 91.875C83.125 96.7075 87.0425 100.625 91.875 100.625Z" fill="rgba(255,255,255,.03)"/>
<path d="M30.625 39.375C35.4575 39.375 39.375 35.4575 39.375 30.625C39.375 25.7925 35.4575 21.875 30.625 21.875C25.7925 21.875 21.875 25.7925 21.875 30.625C21.875 35.4575 25.7925 39.375 30.625 39.375Z" fill="rgba(255,255,255,.03)"/>
<path d="M118.125 135.625C114.664 135.625 111.28 134.599 108.403 132.676C105.525 130.753 103.282 128.02 101.957 124.822C100.633 121.624 100.286 118.106 100.961 114.711C101.637 111.316 103.303 108.198 105.751 105.751C108.198 103.303 111.316 101.636 114.711 100.961C118.106 100.286 121.624 100.633 124.822 101.957C128.02 103.282 130.753 105.525 132.676 108.403C134.599 111.28 135.625 114.664 135.625 118.125C135.611 122.762 133.763 127.205 130.484 130.484C127.205 133.763 122.762 135.611 118.125 135.625ZM118.125 109.375C116.394 109.375 114.703 109.888 113.264 110.85C111.825 111.811 110.703 113.178 110.041 114.777C109.379 116.375 109.206 118.135 109.543 119.832C109.881 121.529 110.714 123.088 111.938 124.312C113.162 125.536 114.721 126.369 116.418 126.707C118.115 127.044 119.875 126.871 121.473 126.209C123.072 125.547 124.439 124.425 125.4 122.986C126.362 121.547 126.875 119.856 126.875 118.125C126.868 115.806 125.944 113.585 124.305 111.945C122.665 110.306 120.444 109.382 118.125 109.375V109.375Z" fill="rgba(255,255,255,.03)"/>
<path d="M131.25 70C131.203 53.77 124.734 38.2183 113.258 26.742C101.782 15.2656 86.23 8.79732 70 8.75C59.5493 8.60093 49.2583 11.325 40.25 16.625L45.0625 24.0625C48.4823 22.4188 51.9873 20.9584 55.5625 19.6875C48.3302 33.9584 44.2989 49.6355 43.75 65.625H17.5C17.9902 58.4012 20.0825 51.3771 23.625 45.0625L17.0625 39.375C11.6188 48.663 8.74942 59.2343 8.75 70C8.74885 78.0438 10.3323 86.009 13.41 93.4407C16.4877 100.872 20.9993 107.625 26.6871 113.313C32.375 119.001 39.1276 123.512 46.5593 126.59C53.991 129.668 61.9562 131.251 70 131.25C77.7992 131.323 85.5343 129.836 92.75 126.875L90.125 118.563C82.9521 121.63 75.1615 122.978 67.375 122.5C58.0451 108.15 52.8945 91.4865 52.5 74.375H130.812C131.174 72.9464 131.322 71.472 131.25 70V70ZM56 120.75C47.3001 118.142 39.3499 113.492 32.8125 107.188C24.1319 98.3051 18.7318 86.7335 17.5 74.375H43.75C44.352 90.5493 48.5359 106.388 56 120.75V120.75ZM52.5 65.625C52.848 48.5691 57.8395 31.9309 66.9375 17.5H73.0625C82.1605 31.9309 87.152 48.5691 87.5 65.625H52.5ZM96.25 65.625C95.9171 49.4118 91.7173 33.5126 84 19.25C94.2938 22.217 103.444 28.2393 110.241 36.5202C117.037 44.8011 121.16 54.9502 122.062 65.625H96.25Z" fill="rgba(255,255,255,.03)"/>
</svg>
