<svg width="16" height="15" viewBox="0 0 16 15" fill="none" xmlns="http://www.w3.org/2000/svg">
<path d="M12.372 15C12.2163 14.9996 12.061 14.9832 11.9089 14.9511C9.01316 14.3768 6.34541 13.0303 4.21268 11.0665C2.12547 9.09838 0.677879 6.59255 0.0450497 3.85217C-0.0295688 3.51064 -0.0112545 3.15645 0.0982308 2.82366C0.207716 2.49088 0.404688 2.19071 0.670195 1.95203L2.52248 0.242794C2.61708 0.157015 2.7295 0.0913281 2.85238 0.050019C2.97525 0.00870986 3.10584 -0.00729258 3.2356 0.00305605C3.37016 0.0165137 3.5 0.0580684 3.616 0.124798C3.73201 0.191527 3.83135 0.281811 3.90706 0.3893L6.22241 3.67015C6.30924 3.79745 6.35115 3.94811 6.34198 4.09996C6.33281 4.25181 6.27304 4.39683 6.17147 4.51367L5.00916 5.84555C5.47207 6.82778 6.12764 7.71553 6.94017 8.46046C7.74744 9.23241 8.70161 9.84881 9.75101 10.2763L11.1912 9.17967C11.3121 9.08803 11.4593 9.03384 11.6131 9.02433C11.767 9.01481 11.9202 9.05041 12.0525 9.1264L15.5486 11.2929C15.6686 11.3616 15.7708 11.4554 15.8476 11.5673C15.9244 11.6793 15.9738 11.8064 15.9921 11.9392C16.0103 12.072 15.997 12.2071 15.9531 12.3343C15.9092 12.4615 15.8358 12.5775 15.7385 12.6736L13.9325 14.3873C13.7274 14.583 13.4839 14.7379 13.2161 14.843C12.9483 14.9482 12.6614 15.0015 12.372 15V15ZM3.16151 0.882094L1.30923 2.59133C1.15987 2.72476 1.0493 2.89317 0.98841 3.07999C0.927516 3.26681 0.91839 3.46561 0.961929 3.65683C1.55036 6.2283 2.90299 8.58135 4.85635 10.4316C6.86339 12.2792 9.37389 13.5457 12.0988 14.0854C12.305 14.1268 12.5188 14.1184 12.7208 14.061C12.9228 14.0037 13.1069 13.8992 13.2564 13.7569L15.0624 12.0432L11.6866 9.95216L10.14 11.1331C10.0808 11.178 10.011 11.2084 9.93675 11.2215C9.86249 11.2347 9.78601 11.2302 9.71396 11.2086C8.42973 10.7549 7.26592 10.0348 6.30576 9.09976C5.31264 8.21061 4.54175 7.11794 4.05061 5.90326C4.02983 5.82973 4.02914 5.7523 4.0486 5.67844C4.06807 5.60457 4.10703 5.53675 4.16175 5.4815L5.41204 4.04752L3.16151 0.882094Z" fill="white"/>
</svg>
