<svg width="54" height="59" viewBox="0 0 54 59" fill="none" xmlns="http://www.w3.org/2000/svg">
<path d="M45.6957 29.499H29.0884V21.0707H24.9366V29.499H8.32941C7.22862 29.5001 6.17323 29.9445 5.39485 30.7345C4.61648 31.5246 4.1787 32.5958 4.1776 33.7131V42.1414H8.32941V33.7131H24.9366V42.1414H29.0884V33.7131H45.6957V42.1414H49.8475V33.7131C49.8464 32.5958 49.4086 31.5246 48.6302 30.7345C47.8518 29.9445 46.7965 29.5001 45.6957 29.499V29.499ZM35.3161 16.8566V0H18.7089V16.8566H35.3161ZM22.8607 12.6424V4.21414H31.1643V12.6424H22.8607ZM47.7716 46.3556C46.4878 46.3594 45.2366 46.7666 44.1899 47.5212C43.1432 48.2757 42.3523 49.3406 41.9258 50.5697H32.8583C32.4355 49.338 31.6456 48.2704 30.5982 47.5149C29.5507 46.7595 28.2975 46.3536 27.0125 46.3536C25.7275 46.3536 24.4744 46.7595 23.4269 47.5149C22.3794 48.2704 21.5895 49.338 21.1668 50.5697H12.0993C11.6096 49.1639 10.646 47.979 9.37882 47.2245C8.11167 46.47 6.62252 46.1945 5.17459 46.4466C3.72666 46.6988 2.41316 47.4624 1.46626 48.6024C0.519349 49.7425 0 51.1856 0 52.6768C0 54.1679 0.519349 55.6111 1.46626 56.7512C2.41316 57.8912 3.72666 58.6548 5.17459 58.907C6.62252 59.1591 8.11167 58.8836 9.37882 58.1291C10.646 57.3746 11.6096 56.1897 12.0993 54.7839H21.1668C21.5895 56.0155 22.3794 57.0832 23.4269 57.8386C24.4744 58.5941 25.7275 59 27.0125 59C28.2975 59 29.5507 58.5941 30.5982 57.8386C31.6456 57.0832 32.4355 56.0155 32.8583 54.7839H41.9258C42.3083 55.8736 42.9784 56.8356 43.8631 57.5649C44.7478 58.2942 45.8129 58.7626 46.9422 58.919C48.0714 59.0754 49.2212 58.9137 50.266 58.4516C51.3109 57.9896 52.2105 57.2449 52.8665 56.299C53.5226 55.3531 53.9099 54.2424 53.9861 53.0882C54.0623 51.934 53.8245 50.7807 53.2986 49.7544C52.7727 48.7281 51.9791 47.8683 51.0043 47.2689C50.0296 46.6694 48.9113 46.3535 47.7716 46.3556ZM6.25351 54.7839C5.84293 54.7839 5.44158 54.6603 5.1002 54.4288C4.75882 54.1972 4.49274 53.8681 4.33562 53.4831C4.1785 53.0981 4.13739 52.6745 4.21749 52.2657C4.29759 51.857 4.4953 51.4815 4.78562 51.1869C5.07594 50.8922 5.44583 50.6915 5.84852 50.6102C6.2512 50.5289 6.6686 50.5706 7.04792 50.7301C7.42724 50.8896 7.75145 51.1597 7.97956 51.5062C8.20766 51.8527 8.32941 52.2601 8.32941 52.6768C8.32941 53.2356 8.1107 53.7716 7.72139 54.1667C7.33208 54.5619 6.80407 54.7839 6.25351 54.7839ZM27.0125 54.7839C26.602 54.7839 26.2006 54.6603 25.8592 54.4288C25.5178 54.1972 25.2518 53.8681 25.0947 53.4831C24.9375 53.0981 24.8964 52.6745 24.9765 52.2657C25.0566 51.857 25.2543 51.4815 25.5447 51.1869C25.835 50.8922 26.2049 50.6915 26.6076 50.6102C27.0102 50.5289 27.4276 50.5706 27.807 50.7301C28.1863 50.8896 28.5105 51.1597 28.7386 51.5062C28.9667 51.8527 29.0884 52.2601 29.0884 52.6768C29.0884 53.2356 28.8697 53.7716 28.4804 54.1667C28.0911 54.5619 27.5631 54.7839 27.0125 54.7839ZM47.7716 54.7839C47.361 54.7839 46.9596 54.6603 46.6183 54.4288C46.2769 54.1972 46.0108 53.8681 45.8537 53.4831C45.6966 53.0981 45.6555 52.6745 45.7356 52.2657C45.8157 51.857 46.0134 51.4815 46.3037 51.1869C46.594 50.8922 46.9639 50.6915 47.3666 50.6102C47.7693 50.5289 48.1867 50.5706 48.566 50.7301C48.9453 50.8896 49.2695 51.1597 49.4976 51.5062C49.7257 51.8527 49.8475 52.2601 49.8475 52.6768C49.8475 53.2356 49.6288 53.7716 49.2395 54.1667C48.8501 54.5619 48.3221 54.7839 47.7716 54.7839Z" fill="rgb(187, 255, 75)"/>
</svg>
