<svg width="16" height="16" viewBox="0 0 16 16" fill="none" xmlns="http://www.w3.org/2000/svg">
<path d="M6.002 4C6.002 3.4701 6.2125 2.9619 6.5872 2.5872C6.9619 2.2125 7.4701 2.002 8 2.002C8.5299 2.002 9.0381 2.2125 9.4128 2.5872C9.7875 2.9619 9.998 3.4701 9.998 4C9.998 4.5299 9.7875 5.0381 9.4128 5.4128C9.0381 5.7875 8.5299 5.998 8 5.998C7.4701 5.998 6.9619 5.7875 6.5872 5.4128C6.2125 5.0381 6.002 4.5299 6.002 4ZM8 3.002C7.86894 3.002 7.73916 3.02781 7.61808 3.07797C7.497 3.12812 7.38698 3.20163 7.29431 3.29431C7.20163 3.38698 7.12812 3.497 7.07797 3.61808C7.02781 3.73916 7.002 3.86894 7.002 4C7.002 4.13106 7.02781 4.26083 7.07797 4.38192C7.12812 4.503 7.20163 4.61302 7.29431 4.70569C7.38698 4.79836 7.497 4.87188 7.61808 4.92203C7.73916 4.97218 7.86894 4.998 8 4.998C8.26469 4.998 8.51853 4.89285 8.70569 4.70569C8.89285 4.51853 8.998 4.26468 8.998 4C8.998 3.73531 8.89285 3.48147 8.70569 3.29431C8.51853 3.10714 8.26469 3.002 8 3.002ZM11 4.5C11 4.30302 11.0388 4.10796 11.1142 3.92597C11.1896 3.74399 11.3001 3.57863 11.4393 3.43934C11.5786 3.30005 11.744 3.18956 11.926 3.11418C12.108 3.0388 12.303 3 12.5 3C12.697 3 12.892 3.0388 13.074 3.11418C13.256 3.18956 13.4214 3.30005 13.5607 3.43934C13.6999 3.57863 13.8104 3.74399 13.8858 3.92597C13.9612 4.10796 14 4.30302 14 4.5C14 4.89782 13.842 5.27935 13.5607 5.56066C13.2794 5.84196 12.8978 6 12.5 6C12.1022 6 11.7206 5.84196 11.4393 5.56066C11.158 5.27935 11 4.89782 11 4.5ZM12.5 4C12.3674 4 12.2402 4.05268 12.1464 4.14645C12.0527 4.24021 12 4.36739 12 4.5C12 4.63261 12.0527 4.75978 12.1464 4.85355C12.2402 4.94732 12.3674 5 12.5 5C12.6326 5 12.7598 4.94732 12.8536 4.85355C12.9473 4.75978 13 4.63261 13 4.5C13 4.36739 12.9473 4.24021 12.8536 4.14645C12.7598 4.05268 12.6326 4 12.5 4ZM3.5 3C3.10218 3 2.72064 3.15803 2.43934 3.43934C2.15804 3.72064 2 4.10217 2 4.5C2 4.89782 2.15804 5.27935 2.43934 5.56066C2.72064 5.84196 3.10218 6 3.5 6C3.89782 6 4.27936 5.84196 4.56066 5.56066C4.84197 5.27935 5 4.89782 5 4.5C5 4.10217 4.84197 3.72064 4.56066 3.43934C4.27936 3.15803 3.89782 3 3.5 3ZM3 4.5C3 4.36739 3.05268 4.24021 3.14645 4.14645C3.24022 4.05268 3.36739 4 3.5 4C3.63261 4 3.75979 4.05268 3.85355 4.14645C3.94732 4.24021 4 4.36739 4 4.5C4 4.63261 3.94732 4.75978 3.85355 4.85355C3.75979 4.94732 3.63261 5 3.5 5C3.36739 5 3.24022 4.94732 3.14645 4.85355C3.05268 4.75978 3 4.63261 3 4.5ZM4.268 7C4.09201 7.30385 3.99954 7.64886 4 8H2V10.5C1.99992 10.7487 2.0617 10.9936 2.17977 11.2125C2.29784 11.4314 2.4685 11.6176 2.67639 11.7541C2.88428 11.8907 3.12286 11.9735 3.37068 11.9949C3.61849 12.0163 3.86774 11.9758 4.096 11.877C4.17 12.208 4.286 12.524 4.436 12.819C4.05646 12.9722 3.64511 13.03 3.23806 12.9871C2.831 12.9442 2.44071 12.802 2.10144 12.573C1.76218 12.3441 1.48432 12.0353 1.29227 11.6738C1.10023 11.3124 0.999864 10.9093 1 10.5V8C1 7.73478 1.10536 7.48043 1.29289 7.29289C1.48043 7.10536 1.73478 7 2 7H4.268ZM11.564 12.819C11.9435 12.9722 12.3549 13.03 12.7619 12.9871C13.169 12.9442 13.5593 12.802 13.8986 12.573C14.2378 12.3441 14.5157 12.0353 14.7077 11.6738C14.8998 11.3124 15.0001 10.9093 15 10.5V8C15 7.73478 14.8946 7.48043 14.7071 7.29289C14.5196 7.10536 14.2652 7 14 7H11.732C11.902 7.294 12 7.635 12 8H14V10.5C14.0001 10.7487 13.9383 10.9936 13.8202 11.2125C13.7022 11.4314 13.5315 11.6176 13.3236 11.7541C13.1157 11.8907 12.8771 11.9735 12.6293 11.9949C12.3815 12.0163 12.1323 11.9758 11.904 11.877C11.829 12.208 11.714 12.524 11.564 12.819ZM6 6.999C5.73478 6.999 5.48043 7.10436 5.29289 7.29189C5.10536 7.47943 5 7.73378 5 7.999V11C5 11.7956 5.31607 12.5587 5.87868 13.1213C6.44129 13.6839 7.20435 14 8 14C8.79565 14 9.55871 13.6839 10.1213 13.1213C10.6839 12.5587 11 11.7956 11 11V8C11 7.73478 10.8946 7.48043 10.7071 7.29289C10.5196 7.10536 10.2652 7 10 7H6V6.999ZM6 7.999H10V11C10 11.5304 9.78929 12.0391 9.41421 12.4142C9.03914 12.7893 8.53043 13 8 13C7.46957 13 6.96086 12.7893 6.58579 12.4142C6.21071 12.0391 6 11.5304 6 11V8V7.999Z" fill="#BBFF4B"/>
</svg>
