<svg width="22" height="22" viewBox="0 0 22 22" fill="none" xmlns="http://www.w3.org/2000/svg">
<path d="M4 11H6M8 11H6M6 11V9M6 11V13M9 8H11V14M17 12.5V9.5C17 9.10218 16.842 8.72064 16.5607 8.43934C16.2794 8.15804 15.8978 8 15.5 8C15.1022 8 14.7206 8.15804 14.4393 8.43934C14.158 8.72064 14 9.10218 14 9.5V12.5C14 12.8978 14.158 13.2794 14.4393 13.5607C14.7206 13.842 15.1022 14 15.5 14C15.8978 14 16.2794 13.842 16.5607 13.5607C16.842 13.2794 17 12.8978 17 12.5Z" stroke="#BBFF4B" stroke-width="2" stroke-linecap="round" stroke-linejoin="round"/>
<path d="M11 21C5.47715 21 1 16.5228 1 11C1 5.47715 5.47715 1 11 1C16.5228 1 21 5.47715 21 11C21 16.5228 16.5228 21 11 21Z" stroke="#BBFF4B" stroke-width="2" stroke-linecap="round" stroke-linejoin="round"/>
</svg>
