<svg width="54" height="54" viewBox="0 0 54 54" fill="none" xmlns="http://www.w3.org/2000/svg">
<path d="M15.2375 0L12.5735 12.5414L0.05931 15.5241L12.6498 18.1766L15.6442 30.6452L18.305 18.1007L30.8214 15.1222L18.2319 12.4686L15.2375 0ZM48.276 0.570195L38.4417 10.3657L43.8057 15.7086L53.639 5.91282L48.276 0.570195ZM34.8649 13.9279L0 48.6569L5.36355 54L40.2285 19.271L34.8645 13.9279H34.8649V13.9279ZM45.6755 20.1474L44.2525 26.8479L37.565 28.4437L44.2917 29.8602L45.8905 36.5216L47.3125 29.8212L54 28.2254L47.2733 26.8088L45.6755 20.1474V20.1474ZM34.7061 32.3228L33.138 39.7121L25.7654 41.466L33.1814 43.028L34.9443 50.374L36.5125 42.9848L43.8851 41.2288L36.4702 39.6657L34.7061 32.3228V32.3228Z" fill="rgb(187, 255, 75)"/>
</svg>
