<svg width="75" height="60" viewBox="0 0 75 60" fill="none" xmlns="http://www.w3.org/2000/svg">
<path d="M57.1901 22.4994H39.3776V29.0624C39.3776 33.7152 35.5925 37.5006 30.9401 37.5006C26.2878 37.5006 22.5026 33.7152 22.5026 29.0624V14.8112L14.8972 19.3819C12.6355 20.7297 11.2527 23.1791 11.2527 25.8043V31.3478L1.87767 36.7623C0.0847039 37.7936 -0.536389 40.0907 0.506578 41.8838L9.88156 58.1274C10.9128 59.9205 13.2097 60.5299 15.0026 59.4986L27.1198 52.5019H43.1276C47.2643 52.5019 50.6276 49.1383 50.6276 45.0013H52.5026C54.5768 45.0013 56.2526 43.3253 56.2526 41.2509V33.7503H57.1901C58.7487 33.7503 60.0026 32.4963 60.0026 30.9376V25.3121C60.0026 23.7534 58.7487 22.4994 57.1901 22.4994ZM74.4986 18.1162L65.1237 1.87262C64.0924 0.0795029 61.7955 -0.529923 60.0026 0.501414L47.8854 7.4981H35.9089C34.5026 7.4981 33.1315 7.89657 31.9362 8.63491L28.0104 11.0843C26.9089 11.7641 26.2526 12.9712 26.2526 14.2604V29.0624C26.2526 31.6525 28.3503 33.7503 30.9401 33.7503C33.53 33.7503 35.6276 31.6525 35.6276 29.0624V18.749H57.1901C60.8112 18.749 63.7526 21.6907 63.7526 25.3121V28.6522L73.1275 23.2377C74.9205 22.1947 75.5299 19.9093 74.4986 18.1162V18.1162Z" fill="#BBFF4B"/>
</svg>
