<?xml version="1.0" standalone="no"?>
<!DOCTYPE svg PUBLIC "-//W3C//DTD SVG 20010904//EN"
 "http://www.w3.org/TR/2001/REC-SVG-20010904/DTD/svg10.dtd">
<svg version="1.0" xmlns="http://www.w3.org/2000/svg"
 width="726.000000pt" height="726.000000pt" viewBox="0 0 726.000000 726.000000"
 preserveAspectRatio="xMidYMid meet">
<metadata>
Created by potrace 1.14, written by Peter Selinger 2001-2017
</metadata>
<g transform="translate(0.000000,726.000000) scale(0.100000,-0.100000)"
fill="#000000" stroke="none">
<path d="M3288 7165 c-4 -4 -130 -17 -180 -19 -21 -1 -38 -4 -38 -8 0 -5 -3
-7 -7 -6 -7 2 -94 -9 -133 -17 -8 -1 -33 -6 -55 -9 -61 -10 -258 -57 -276 -67
-9 -4 -28 -10 -43 -13 -36 -6 -261 -83 -306 -104 -19 -9 -37 -17 -40 -17 -44
-10 -328 -152 -454 -228 -89 -53 -272 -173 -286 -187 -3 -3 -41 -32 -85 -65
-43 -33 -91 -71 -106 -85 -14 -14 -55 -50 -90 -82 -106 -93 -239 -229 -332
-338 -59 -70 -237 -307 -237 -316 0 -5 -11 -22 -25 -38 -14 -16 -25 -33 -25
-37 0 -4 -6 -14 -13 -21 -6 -7 -23 -33 -36 -58 -14 -25 -27 -47 -31 -50 -18
-14 -205 -413 -250 -534 -29 -76 -53 -146 -55 -155 -2 -9 -13 -47 -25 -86 -12
-38 -23 -77 -24 -85 -2 -8 -9 -35 -16 -60 -7 -25 -13 -52 -15 -60 -48 -239
-53 -272 -71 -435 -22 -200 -21 -541 1 -725 3 -19 7 -55 10 -80 3 -25 7 -56 9
-70 2 -14 7 -43 10 -65 3 -22 8 -51 11 -65 3 -14 8 -38 11 -55 3 -16 14 -66
25 -110 11 -44 23 -91 25 -105 6 -30 34 -127 44 -155 4 -11 18 -49 30 -85 88
-264 255 -597 414 -830 81 -117 120 -169 251 -330 11 -13 90 -95 175 -181 135
-136 260 -248 365 -326 162 -119 249 -177 395 -261 136 -78 400 -203 490 -232
14 -5 55 -19 92 -33 38 -14 68 -23 68 -21 0 3 9 0 21 -6 11 -6 28 -13 37 -16
189 -49 334 -85 362 -88 19 -3 35 -5 35 -6 0 -3 89 -18 150 -25 28 -4 61 -8
75 -11 141 -25 698 -25 836 0 10 2 46 7 79 11 32 4 68 9 80 11 11 2 49 9 84
14 151 25 455 112 626 180 130 51 154 62 277 123 538 266 992 652 1334 1137
59 84 154 231 167 260 4 8 17 31 28 50 37 61 146 282 184 375 38 91 114 304
121 339 2 11 10 40 18 65 9 25 17 57 20 71 2 14 11 52 19 85 18 68 53 255 62
330 3 28 8 66 10 85 18 148 25 483 12 632 l-6 77 56 11 c31 7 65 17 75 23 22
14 41 64 27 72 -5 4 -7 10 -4 15 3 4 -7 16 -22 25 -23 15 -34 16 -82 7 -31 -5
-59 -7 -63 -4 -4 4 -9 27 -12 52 -3 25 -10 70 -16 100 -6 30 -13 71 -16 90
-17 111 -120 459 -174 585 -64 153 -93 217 -141 310 -310 604 -764 1088 -1351
1443 -254 153 -636 311 -938 387 -18 4 -69 16 -90 21 -14 3 -36 8 -50 11 -14
3 -34 7 -45 8 -11 2 -20 4 -20 5 0 1 -9 3 -20 5 -97 14 -123 18 -140 21 -11 3
-42 7 -70 10 -27 2 -66 7 -85 10 -38 6 -616 15 -622 9z m697 -251 c11 -1 31
-3 44 -3 22 -1 23 -3 16 -67 -3 -36 -8 -73 -10 -82 -6 -34 -18 -138 -18 -164
-1 -38 -11 -35 -45 15 -17 23 -40 53 -52 67 -122 139 -137 177 -88 229 19 22
33 22 153 5z m370 -69 c164 -40 485 -149 485 -164 0 -3 -28 -24 -62 -46 -52
-34 -93 -64 -143 -103 -36 -27 -132 -99 -142 -105 -7 -4 -38 0 -70 10 -32 9
-60 17 -63 18 -124 28 -231 46 -288 48 -9 0 -11 10 -8 31 3 17 8 58 11 91 4
33 8 71 10 85 2 14 7 52 11 85 5 33 9 63 10 68 1 4 2 13 3 20 1 15 89 1 246
-38z m707 -264 c151 -77 230 -124 338 -197 91 -63 142 -118 257 -279 45 -63
113 -179 113 -191 0 -3 -19 5 -42 17 -24 12 -54 27 -68 34 -47 25 -280 115
-323 126 -51 13 -154 36 -193 44 -16 3 -74 8 -129 12 -90 5 -103 8 -128 32
-57 53 -74 67 -119 99 -25 17 -51 32 -56 32 -6 0 -12 4 -14 8 -1 4 -36 23 -75
42 -84 39 -87 27 38 122 97 74 240 168 256 168 6 0 72 -31 145 -69z m-905
-146 c29 -3 83 -12 120 -21 38 -8 76 -16 85 -18 10 -1 21 -5 24 -9 4 -4 17 -7
28 -7 22 0 11 -12 -130 -135 -32 -27 -104 -95 -162 -150 -57 -55 -108 -102
-114 -104 -5 -2 -7 10 -3 30 7 38 12 86 20 174 6 76 11 99 24 123 14 26 20 88
10 104 -10 15 10 30 31 23 8 -3 39 -7 67 -10z m436 -124 c86 -40 227 -135 227
-151 0 -6 -17 -10 -37 -11 -61 -2 -168 -15 -248 -31 -27 -5 -61 -11 -75 -14
-46 -9 -194 -53 -280 -83 l-85 -31 90 86 c112 108 305 274 317 274 4 0 45 -17
91 -39z m-616 -58 c-3 -10 -9 -49 -13 -88 -4 -38 -8 -79 -10 -90 -1 -11 -3
-35 -3 -53 -1 -18 -5 -31 -10 -28 -8 5 -171 261 -171 268 0 2 48 4 106 6 98 3
105 2 101 -15z m-207 -100 c30 -48 61 -99 68 -112 7 -14 19 -29 25 -33 8 -5 8
-8 -3 -8 -9 0 -31 10 -50 23 -19 13 -62 36 -95 53 -68 33 -77 42 -65 63 4 9 8
18 8 21 2 25 37 80 51 80 3 0 31 -39 61 -87z m1975 -33 c104 -86 385 -386 430
-459 7 -13 -71 43 -85 60 -10 12 -201 129 -210 129 -6 0 -28 35 -50 78 -43 83
-44 85 -108 181 -24 36 -36 58 -26 51 10 -8 32 -26 49 -40z m-852 -30 c14 -16
57 -100 66 -130 12 -38 16 -123 8 -155 -3 -11 -8 -32 -12 -47 -4 -16 -11 -28
-16 -28 -4 0 -50 18 -100 41 -238 104 -466 162 -677 172 -24 1 3 14 83 40 114
37 185 57 225 63 19 3 39 8 43 11 28 17 368 46 380 33z m182 -5 c154 -18 260
-47 445 -122 114 -47 288 -133 297 -147 21 -32 56 -150 69 -232 25 -161 -12
-353 -94 -481 -14 -22 -17 -19 -150 116 -140 141 -258 240 -392 326 -41 26
-87 56 -102 67 -15 10 -29 18 -32 18 -3 0 -32 16 -65 35 l-59 35 17 47 c34 93
21 223 -29 310 -21 36 -19 42 18 38 15 -2 50 -6 77 -10z m-3460 -93 c28 -20
73 -55 101 -78 l50 -43 -1 -66 c-1 -36 -4 -67 -6 -69 -2 -2 -51 -27 -109 -56
-223 -111 -431 -250 -589 -395 -70 -63 -188 -183 -205 -207 -9 -12 -18 -20
-20 -17 -11 11 -22 148 -20 246 4 157 9 188 45 241 35 51 120 164 130 172 3 3
30 34 60 70 29 35 86 97 125 137 78 79 115 95 249 111 85 9 123 0 190 -46z
m2114 13 c44 -22 82 -46 85 -53 3 -7 2 -11 -2 -8 -5 3 -38 8 -75 11 -36 4 -74
8 -84 10 -10 2 -24 4 -30 4 -9 1 -10 8 -3 26 5 14 9 29 9 33 -5 30 -5 30 100
-23z m-10 -104 c36 -2 17 -14 -50 -32 l-59 -16 0 22 c0 30 6 34 48 30 20 -2
48 -3 61 -4z m576 -25 c17 -3 32 -5 35 -6 3 -2 8 -2 12 -1 4 0 36 -6 70 -14
35 -9 72 -18 83 -20 57 -13 193 -62 297 -107 l117 -51 -18 -26 c-43 -59 -197
-171 -234 -171 -7 0 -34 21 -62 46 -88 82 -340 264 -365 264 -5 0 -10 4 -10 9
0 5 -8 11 -17 15 -36 12 -123 63 -117 68 6 6 154 2 209 -6z m-371 -63 c-3 -21
-9 -65 -14 -98 -5 -33 -12 -87 -16 -119 -6 -59 -11 -91 -14 -91 -1 0 -3 -25
-5 -55 -8 -102 -8 -102 -68 -96 -52 6 -129 19 -177 30 -14 3 -37 8 -53 12 -15
3 -25 9 -22 14 3 4 7 25 10 46 3 22 8 57 12 79 3 22 6 46 6 53 0 7 25 34 56
59 31 26 58 50 61 53 17 19 215 150 227 150 1 0 -1 -17 -3 -37z m-899 16 c9
-13 -3 -79 -14 -79 -4 0 -13 11 -19 25 -17 36 14 86 33 54z m754 -2 c-35 -23
-165 -124 -167 -129 -7 -15 -20 -8 -17 10 2 9 4 33 4 53 1 21 6 36 14 37 6 0
46 9 87 20 65 16 95 19 79 9z m490 -125 c158 -103 332 -244 318 -258 -10 -11
-198 -65 -243 -70 l-40 -5 -52 103 c-70 138 -105 202 -114 206 -5 2 -8 8 -8
14 0 6 -13 30 -30 54 -58 86 -57 88 17 48 37 -21 106 -62 152 -92z m-185 -40
c31 -51 56 -95 56 -98 0 -2 12 -23 27 -47 14 -23 25 -43 24 -45 -1 -1 11 -29
28 -61 l29 -58 -41 -3 c-23 -1 -96 -3 -162 -4 l-120 -1 1 35 c0 19 4 58 8 85
9 59 14 93 22 160 7 56 7 56 18 138 l8 58 23 -33 c13 -19 48 -76 79 -126z
m-2235 134 c10 -12 8 -17 -8 -26 -19 -9 -21 -8 -21 15 0 28 12 32 29 11z
m4119 -62 c31 -20 59 -41 60 -45 2 -5 8 -9 14 -9 13 0 154 -114 227 -183 44
-42 66 -76 117 -182 53 -111 95 -217 110 -275 2 -8 10 -42 18 -75 45 -183 36
-424 -21 -594 -30 -90 -113 -249 -135 -259 -5 -2 -8 -10 -8 -18 0 -34 -20 -8
-46 59 -67 179 -187 431 -255 537 -9 14 -38 59 -65 100 -59 93 -146 214 -156
218 -14 6 -8 32 17 72 108 171 134 428 66 650 -6 19 -11 36 -11 37 0 8 16 0
68 -33z m-4009 -36 c15 -13 20 -28 19 -63 l-1 -47 -15 32 c-21 44 -54 63 -101
58 -53 -5 -48 20 9 42 33 13 47 14 56 6 6 -6 21 -19 33 -28z m-192 -70 c-3
-24 -8 -52 -11 -63 -2 -11 -5 -28 -5 -37 -1 -26 -42 -26 -93 1 -39 20 -52 23
-70 13 -13 -6 -32 -13 -43 -17 -24 -7 -79 -56 -87 -77 -4 -8 2 -30 13 -48 18
-28 20 -54 23 -207 l3 -174 -29 -25 c-16 -13 -34 -24 -40 -24 -19 0 -206 -191
-210 -215 -6 -29 11 -52 45 -60 40 -10 67 0 112 42 22 21 54 44 70 51 27 12
25 9 -12 -23 -24 -20 -43 -41 -43 -45 0 -5 10 -18 22 -30 12 -11 18 -20 12
-20 -5 0 -27 -17 -50 -38 -52 -47 -85 -75 -154 -132 -30 -25 -65 -55 -78 -67
-14 -13 -28 -23 -31 -23 -6 0 -63 84 -90 130 -72 128 -151 323 -166 410 -5 30
-1 41 32 79 155 181 421 398 638 521 67 39 229 120 239 120 5 0 6 -19 3 -42z
m3327 -52 c56 -31 240 -156 301 -205 79 -62 317 -296 334 -329 10 -20 4 -30
-65 -101 -78 -82 -201 -176 -311 -236 l-63 -35 -14 23 c-7 12 -30 48 -50 80
-20 31 -36 61 -36 66 0 5 -3 11 -7 13 -5 2 -30 37 -58 78 -54 80 -179 244
-229 299 -17 19 -68 73 -113 120 l-82 86 37 19 c57 29 145 100 187 150 l38 46
56 -32 c31 -17 65 -36 75 -42z m-348 -270 c121 -127 146 -156 229 -266 69 -91
195 -274 195 -284 0 -2 16 -28 35 -57 l34 -52 -47 -22 c-95 -44 -329 -122
-416 -139 -12 -3 -51 -11 -89 -19 -70 -15 -76 -13 -82 26 -2 12 -9 40 -15 62
-6 22 -13 48 -15 58 -2 10 -7 27 -10 37 -3 10 -8 27 -10 37 -4 21 -53 180 -62
203 -4 8 -7 17 -8 20 -14 57 -102 282 -141 364 -14 30 -8 44 21 47 39 3 79 14
164 43 53 19 103 34 112 35 9 0 56 -41 105 -93z m-3989 2 c0 -94 10 -215 22
-270 8 -34 5 -42 -24 -81 -139 -182 -298 -484 -355 -672 -6 -22 -14 -47 -17
-55 -3 -8 -7 -21 -9 -29 -1 -7 -8 -19 -14 -25 -8 -8 -10 28 -6 134 4 148 6
165 32 260 8 30 17 62 19 70 17 67 110 301 156 393 16 31 29 59 29 62 -1 10
159 295 165 295 1 0 2 -37 2 -82z m2853 22 c19 -5 49 -11 65 -13 17 -3 48 -8
69 -12 22 -4 54 -8 70 -9 30 -3 31 -5 30 -47 -1 -40 -9 -106 -20 -169 -2 -14
-7 -45 -10 -70 -3 -25 -10 -74 -15 -110 -6 -36 -12 -85 -15 -110 -2 -25 -6
-52 -9 -60 -2 -8 -7 -37 -10 -65 -3 -27 -11 -88 -18 -135 -12 -81 -14 -85 -37
-84 -37 2 -132 14 -139 18 -3 2 -30 7 -60 10 -29 4 -57 9 -61 11 -4 3 -23 7
-41 9 -117 16 -509 130 -509 148 0 9 55 115 80 154 13 21 15 21 74 7 34 -8 70
-16 81 -18 11 -1 39 -7 62 -13 48 -11 81 3 70 31 -6 16 -21 21 -159 52 -43 10
-78 20 -78 23 0 9 102 172 108 173 4 1 23 3 42 5 118 14 233 99 316 235 31 51
40 60 58 54 11 -3 37 -10 56 -15z m712 -145 c26 -60 51 -123 57 -140 5 -16 28
-84 51 -150 23 -66 44 -127 46 -135 2 -8 13 -49 25 -90 34 -121 57 -215 53
-221 -21 -36 -700 -48 -756 -13 -4 3 -5 20 -2 37 9 51 14 89 18 134 2 22 7 49
10 60 3 10 8 47 11 82 3 35 7 66 9 70 2 3 7 31 10 61 4 30 8 66 10 80 12 74
20 127 21 140 2 19 18 132 21 143 1 4 2 15 3 25 1 17 10 19 91 18 50 -1 114 1
143 4 29 3 70 6 92 5 l39 0 48 -110z m-1271 -110 l27 -6 -55 -90 c-57 -92 -64
-97 -119 -79 -16 5 -42 11 -59 14 -16 2 -55 10 -85 17 -30 7 -58 12 -62 11
-47 -12 127 85 196 110 27 10 50 19 52 21 6 6 78 8 105 2z m3560 -150 c63
-142 162 -448 183 -565 2 -14 7 -36 10 -50 3 -14 8 -36 10 -50 2 -14 7 -36 10
-50 3 -14 8 -45 10 -70 3 -25 7 -52 11 -61 5 -13 -2 -18 -31 -22 -20 -4 -44
-2 -53 2 -17 9 -114 7 -130 -3 -5 -4 -12 -2 -15 3 -3 5 -15 7 -26 4 -23 -6
-52 -42 -44 -54 6 -10 -24 -26 -57 -32 -85 -15 -113 -18 -106 -11 4 4 0 15 -8
23 -12 15 -9 24 31 81 64 92 130 226 149 300 0 3 6 21 13 40 39 117 47 367 17
505 -3 11 -7 31 -9 45 -3 14 -8 36 -11 50 l-6 25 13 -25 c6 -14 24 -52 39 -85z
m-728 -85 c45 -65 89 -134 160 -255 10 -16 30 -55 45 -85 15 -30 30 -56 35
-58 4 -2 7 -8 7 -13 0 -6 13 -38 29 -72 16 -34 45 -105 66 -157 20 -52 41
-105 46 -118 5 -13 9 -24 9 -26 0 -1 -26 10 -57 25 -65 32 -113 33 -218 4 -33
-9 -100 -18 -150 -20 -49 -2 -128 -10 -175 -18 -83 -15 -120 -10 -120 14 0 10
-113 297 -129 326 -5 10 -33 65 -61 123 -59 120 -64 102 55 172 39 23 99 63
135 90 72 54 210 186 210 202 1 15 52 -46 113 -134z m-5067 35 c15 -85 135
-340 209 -446 19 -27 35 -52 35 -56 0 -5 -21 -26 -46 -49 -42 -38 -44 -42 -29
-58 16 -15 20 -14 64 23 l47 39 44 -51 c25 -28 78 -83 118 -121 39 -39 72 -73
72 -77 0 -4 -26 -51 -58 -106 -32 -54 -76 -132 -98 -173 -21 -41 -41 -77 -44
-80 -24 -22 -172 -377 -210 -502 -13 -43 -26 -78 -30 -78 -9 0 -91 87 -151
161 -160 197 -251 356 -320 564 -37 112 -40 139 -23 207 18 74 88 286 111 337
78 175 201 401 224 409 5 2 9 8 9 13 0 17 55 87 63 80 4 -4 10 -20 13 -36z
m1812 20 c64 -14 135 -30 157 -36 22 -5 54 -12 70 -14 80 -12 83 -15 58 -52
-11 -15 -29 -49 -41 -75 -12 -25 -26 -49 -31 -52 -12 -8 -69 13 -177 64 -79
37 -83 41 -127 114 -26 42 -42 76 -36 76 5 0 62 -11 127 -25z m-164 -50 c3 -8
1 -15 -4 -15 -6 0 -10 7 -10 15 0 8 2 15 4 15 2 0 6 -7 10 -15z m-180 -76 c16
-57 40 -79 87 -79 13 0 20 -6 18 -17 -1 -10 -1 -116 0 -235 1 -211 2 -217 22
-223 42 -14 44 2 41 286 -1 149 1 269 6 269 30 0 92 -67 156 -170 71 -112 99
-139 112 -105 8 19 -14 69 -57 133 -28 42 -29 43 -7 37 22 -7 62 -23 118 -48
14 -6 26 -12 28 -13 1 -1 -31 -72 -73 -158 -41 -86 -75 -159 -75 -162 0 -3
-55 -138 -90 -219 -5 -11 -29 -76 -55 -145 -25 -69 -53 -138 -61 -153 -8 -16
-14 -33 -14 -39 0 -9 -58 -165 -65 -176 -2 -2 -67 25 -215 90 -72 32 -269 133
-340 173 -36 21 -75 43 -87 49 -13 6 -23 14 -23 19 0 4 -5 7 -10 7 -11 0 -146
91 -232 157 -38 29 -55 49 -52 58 4 8 10 15 15 15 5 0 9 4 9 9 0 11 153 238
183 271 32 36 110 105 119 106 5 1 12 2 17 3 11 1 56 45 108 105 45 52 44 51
172 61 l74 6 66 71 c36 39 68 75 70 80 6 17 18 -5 35 -63z m-931 37 c-10 -13
-27 -30 -38 -36 -11 -7 -4 4 14 24 40 42 50 47 24 12z m269 -218 c-74 -72 -92
-95 -92 -118 0 -17 7 -33 17 -38 15 -9 11 -19 -32 -83 -28 -41 -52 -76 -55
-79 -3 -3 -25 -36 -49 -73 l-44 -68 -35 33 c-43 40 -121 122 -156 163 -25 29
-34 55 -18 55 4 0 18 10 32 23 14 12 50 42 80 67 61 50 84 69 119 99 43 38 37
20 -12 -34 -11 -11 -42 -47 -70 -79 -29 -32 -64 -72 -79 -89 -27 -30 -28 -57
-1 -57 16 0 23 7 171 167 73 78 108 109 121 106 16 -4 131 81 131 97 0 4 14 4
32 2 l31 -5 -91 -89z m3701 -110 c74 -153 96 -202 124 -278 13 -36 30 -78 37
-95 30 -67 30 -73 -7 -89 -19 -8 -39 -21 -43 -29 -5 -8 -58 -29 -119 -47 -60
-17 -150 -49 -200 -70 -49 -21 -108 -42 -130 -46 -22 -4 -42 -8 -45 -9 -3 -1
-41 -9 -85 -19 -44 -10 -88 -23 -98 -28 -28 -14 -29 -11 -42 102 -8 77 -13
120 -20 160 -3 19 -8 49 -10 65 -3 25 -21 120 -40 220 -2 11 -7 34 -10 51 l-6
31 63 13 c35 6 88 19 118 27 30 8 82 22 115 30 33 8 65 19 71 24 6 5 13 7 15
5 2 -2 56 18 119 44 63 26 120 48 127 49 7 0 37 -50 66 -111z m-2397 86 c25
-9 54 -17 63 -19 9 -2 28 -8 44 -14 32 -12 250 -71 287 -77 14 -2 45 -9 70
-14 59 -14 87 -19 130 -26 19 -3 46 -7 60 -10 14 -2 48 -7 75 -10 65 -8 75
-17 65 -57 -8 -30 -13 -60 -25 -167 -3 -25 -8 -56 -10 -70 -2 -14 -7 -43 -10
-65 -3 -22 -8 -51 -10 -65 -5 -26 -10 -57 -19 -125 -4 -22 -13 -80 -21 -130
-8 -49 -16 -100 -18 -112 -2 -12 -6 -26 -10 -30 -4 -4 -146 -8 -315 -9 -297
-2 -518 -9 -632 -21 -30 -3 -92 -8 -137 -10 l-82 -4 33 93 c52 146 157 420
172 450 8 15 14 29 13 30 -1 5 17 49 61 148 23 52 44 104 47 115 4 11 9 22 13
25 3 3 16 28 29 55 44 97 65 135 72 135 5 0 29 -7 55 -16z m1649 -193 c8 -26
44 -218 50 -264 3 -23 7 -49 10 -57 2 -8 6 -35 9 -60 3 -25 8 -70 12 -100 13
-96 11 -143 -6 -146 -8 -1 -33 -5 -55 -9 -22 -3 -50 -8 -61 -10 -12 -2 -64
-17 -116 -34 -53 -16 -106 -32 -119 -35 -13 -2 -44 -9 -69 -15 -25 -5 -56 -12
-70 -14 -14 -3 -55 -12 -91 -21 -37 -8 -78 -17 -90 -20 -13 -2 -63 -13 -111
-25 -78 -18 -91 -19 -140 -6 -29 7 -56 11 -61 8 -7 -4 -2 53 9 112 7 37 24
142 29 185 2 14 8 54 13 90 6 36 13 83 17 105 3 22 10 69 16 105 6 36 12 79
14 95 11 106 16 124 39 119 135 -27 704 -20 733 10 9 9 33 0 38 -13z m-4271
-261 c4 -30 9 -67 11 -82 3 -15 1 -48 -5 -73 -6 -25 -13 -62 -16 -83 -3 -20
-7 -48 -10 -62 -2 -14 -7 -47 -10 -75 -4 -27 -8 -57 -10 -65 -1 -8 -3 -33 -3
-54 -1 -22 -4 -37 -7 -33 -10 10 -3 249 11 382 3 33 8 80 11 105 2 25 6 54 8
65 3 11 5 24 5 29 2 23 10 -4 15 -54z m1150 -123 c82 -61 205 -147 212 -147 2
0 21 -11 42 -24 115 -75 346 -191 550 -277 39 -17 41 -29 5 -30 -16 0 -37 -2
-48 -5 -11 -2 -33 -6 -50 -8 -111 -16 -151 -40 -202 -120 -31 -48 -37 -74 -36
-157 0 -45 6 -74 18 -92 14 -22 15 -28 4 -31 -23 -8 -132 -34 -164 -40 -16 -2
-89 -18 -162 -35 -72 -17 -142 -32 -155 -35 -12 -2 -39 -7 -58 -11 -19 -3 -48
-8 -65 -10 -16 -2 -30 -5 -30 -6 0 -2 -38 -6 -130 -12 -88 -7 -79 -11 -204
100 l-44 39 28 85 c15 46 28 89 30 94 3 15 28 78 79 200 37 91 153 318 218
428 34 60 67 117 73 128 5 10 12 19 14 19 3 0 36 -24 75 -53z m-997 -362 c78
-157 209 -340 346 -482 l70 -72 -13 -62 -13 -61 -41 6 c-23 4 -48 7 -56 8 -22
0 -117 27 -180 49 -73 27 -175 83 -227 125 l-42 35 5 192 c5 207 8 271 19 332
4 22 8 56 10 75 2 19 7 51 10 70 7 34 7 33 40 -50 18 -47 50 -121 72 -165z
m6413 178 c6 -135 5 -299 -2 -365 -11 -89 -50 -223 -94 -314 -50 -106 -180
-294 -204 -294 -3 0 -6 17 -7 38 -2 84 -20 276 -34 372 -6 36 -12 79 -14 95
-2 17 -6 44 -9 60 -4 17 -9 46 -12 65 -3 19 -7 42 -9 50 -2 8 -7 30 -10 48 -3
18 -12 61 -21 95 -28 114 -31 109 66 131 47 10 114 20 150 21 77 2 130 13 130
26 0 8 16 18 66 39 0 0 2 -30 4 -67z m-458 -214 c4 -19 10 -50 13 -69 3 -19 7
-42 10 -50 2 -8 6 -33 10 -55 3 -22 10 -65 15 -95 5 -30 11 -73 14 -95 2 -22
7 -60 10 -85 10 -76 16 -160 21 -275 l5 -110 -63 -53 c-94 -81 -273 -196 -404
-261 -147 -73 -191 -92 -197 -83 -2 4 -5 46 -6 92 -3 190 -15 381 -34 525 -11
83 -19 150 -19 163 0 6 -3 12 -6 12 -3 0 -6 12 -7 28 0 28 -9 86 -19 135 -5
23 -2 27 17 28 36 1 55 6 138 35 55 19 81 33 88 49 8 18 26 26 89 39 175 38
244 72 281 137 21 36 34 33 44 -12z m-710 -300 c4 -19 9 -52 12 -74 3 -22 8
-51 11 -65 3 -14 7 -43 10 -65 2 -22 7 -62 11 -90 9 -72 12 -104 18 -160 9
-86 19 -296 20 -405 l1 -105 -135 -45 c-127 -43 -251 -81 -276 -86 -6 -1 -51
-12 -99 -23 -177 -44 -482 -101 -560 -104 -22 -1 -39 3 -39 8 16 112 37 297
50 440 13 141 26 421 27 558 0 61 5 98 11 98 6 1 31 3 56 4 74 4 157 23 186
42 21 14 36 18 104 29 41 7 63 12 70 14 3 1 10 3 15 4 6 1 28 7 50 14 23 6 69
13 103 14 34 2 62 6 62 9 0 7 2 7 138 13 62 2 116 7 120 10 12 13 27 -2 34
-35z m-1008 -254 c-1 -179 -21 -517 -38 -655 -3 -25 -8 -65 -10 -90 -8 -77
-17 -144 -23 -175 -3 -16 -5 -38 -5 -47 0 -10 -7 -18 -16 -19 -9 -1 -33 -2
-52 -3 -19 -2 -55 -6 -80 -9 -166 -25 -719 -26 -975 -2 -16 1 -43 3 -58 4 -28
1 -28 2 -24 54 3 28 6 52 7 52 1 0 5 20 14 85 2 19 5 35 6 35 1 0 3 14 5 30 4
38 12 88 30 195 7 47 16 103 20 124 12 83 9 81 148 151 127 64 237 136 237
155 0 4 15 12 33 15 17 4 41 15 52 25 12 11 113 44 245 80 124 33 243 67 265
75 43 15 77 23 140 31 22 3 42 8 44 10 3 3 12 3 21 2 13 -3 15 -22 14 -123z
m2110 -87 c-32 -150 -66 -279 -104 -388 -42 -124 -126 -330 -134 -330 -2 0 -2
30 -1 68 2 37 4 151 4 253 l1 186 29 30 c55 58 191 243 191 260 0 6 40 73 44
73 1 0 -12 -69 -30 -152z m-5833 32 c24 -22 39 -41 34 -41 -66 -8 -113 10 -97
36 7 10 8 15 11 35 2 15 5 13 52 -30z m-536 -226 c74 -75 169 -142 284 -201
l64 -33 3 -198 2 -199 -47 51 c-62 68 -120 140 -161 201 -19 28 -36 52 -40 55
-10 8 -70 109 -111 185 -39 73 -79 184 -79 218 0 17 3 16 22 -9 13 -16 41 -47
63 -70z m6079 -237 c-3 -157 -12 -351 -20 -411 -3 -27 -19 -57 -50 -96 -56
-69 -208 -219 -289 -286 -33 -27 -62 -51 -65 -54 -10 -11 -146 -107 -185 -130
-22 -13 -41 -28 -43 -32 -2 -4 -10 -8 -17 -8 -8 0 -20 -6 -27 -12 -16 -15 -55
-38 -64 -38 -5 0 -1 37 9 85 7 34 19 98 23 128 7 59 15 113 19 137 14 81 30
297 34 450 l1 36 123 54 c67 29 148 69 179 87 31 18 59 33 63 33 3 0 11 4 18
10 7 5 48 33 92 62 83 55 93 62 153 115 20 17 39 27 43 22 3 -5 4 -73 3 -152z
m-3075 104 c-5 -21 -10 -53 -13 -72 -4 -29 -43 -276 -61 -379 -3 -19 -7 -49
-9 -66 -5 -55 -13 -58 -111 -41 -16 3 -50 8 -75 11 -25 3 -56 8 -70 11 -22 4
-78 15 -170 32 -14 2 -45 9 -70 14 -25 6 -52 12 -60 14 -8 2 -35 8 -60 15 -25
6 -63 15 -85 20 -22 5 -59 16 -83 24 -23 8 -43 15 -45 14 -3 -1 -119 32 -137
39 -8 3 -17 7 -20 7 -15 3 -267 98 -278 105 -9 5 -11 19 -7 43 10 50 17 58 66
66 39 7 49 5 84 -18 22 -15 56 -32 75 -38 58 -19 173 -4 262 35 36 15 39 15
95 -13 76 -37 147 -41 234 -10 35 12 69 24 74 25 6 2 17 6 25 8 30 10 76 26
110 41 19 8 44 17 55 22 11 4 76 35 145 68 69 34 128 62 131 62 4 0 3 -17 -2
-39z m-2562 -136 c10 -2 43 -11 73 -20 30 -8 69 -17 85 -20 17 -3 41 -8 55
-10 79 -15 135 -19 325 -19 116 0 251 3 300 7 l90 8 100 -45 c74 -34 100 -50
99 -63 -1 -18 -3 -30 -23 -141 -7 -35 -14 -75 -16 -90 -8 -47 -15 -96 -20
-127 -3 -16 -7 -49 -10 -72 -3 -24 -7 -62 -10 -85 -9 -73 -18 -230 -19 -319
l-1 -86 -25 7 c-81 23 -364 162 -501 245 -102 62 -268 176 -293 200 -8 8 -19
15 -24 15 -6 0 -12 3 -14 8 -1 4 -23 25 -48 46 -130 113 -142 127 -146 170 -4
48 -16 256 -16 271 1 6 1 38 2 73 1 35 6 60 11 57 5 -4 17 -8 26 -10z m1158
-47 c-7 -35 -19 -39 -63 -21 -62 27 -56 33 40 40 22 2 26 -1 23 -19z m-1482
-120 c20 -25 37 -51 37 -57 0 -5 6 -14 13 -18 7 -4 25 -24 41 -43 16 -19 58
-67 95 -106 l66 -70 17 -110 c10 -60 20 -125 24 -144 5 -33 3 -31 -39 30 -24
36 -52 81 -63 100 -10 19 -22 37 -25 40 -6 5 -53 90 -111 200 -31 60 -93 195
-106 230 -6 18 2 10 51 -52z m1555 -17 c94 -52 613 -206 792 -236 19 -3 43 -8
53 -11 11 -3 29 -7 40 -8 12 -2 36 -6 52 -9 17 -4 48 -9 70 -12 23 -3 50 -7
61 -9 18 -4 130 -19 146 -20 15 -2 15 -15 3 -97 -7 -48 -16 -106 -19 -130 -3
-24 -8 -53 -10 -64 -2 -11 -7 -42 -10 -70 -4 -27 -9 -57 -11 -65 -2 -8 -6 -35
-9 -60 -3 -25 -8 -54 -10 -65 -2 -11 -7 -40 -10 -65 -3 -25 -8 -55 -10 -67 -3
-12 -7 -46 -10 -75 -12 -101 -20 -133 -35 -124 -4 3 -39 8 -77 11 -38 4 -82 9
-99 12 -16 3 -41 6 -55 8 -143 17 -251 35 -425 70 -154 31 -428 108 -520 145
-11 5 -28 11 -38 14 -17 6 -18 17 -12 158 7 171 10 221 19 291 27 214 29 223
57 375 22 115 27 124 67 103z m3673 -53 c1 -7 1 -15 1 -18 -9 -190 -17 -300
-26 -365 -3 -22 -8 -60 -10 -85 -3 -25 -10 -69 -15 -99 -6 -30 -9 -56 -6 -59
2 -3 0 -12 -5 -21 -4 -9 -11 -37 -15 -61 -12 -85 -23 -122 -41 -134 -18 -14
-230 -107 -248 -110 -6 -1 -15 -4 -21 -7 -22 -13 -239 -79 -255 -78 -3 0 -17
-4 -33 -10 -15 -6 -38 -13 -50 -15 -12 -3 -33 -8 -47 -11 -25 -6 -103 -21
-150 -30 -14 -3 -34 -7 -45 -9 -33 -7 -187 -28 -292 -41 -53 -6 -53 -7 -13
138 16 59 27 107 24 107 -3 0 0 8 5 18 5 9 11 31 14 47 3 17 20 95 37 175 37
175 36 173 66 365 8 57 5 55 109 69 69 10 106 16 135 21 14 3 39 7 55 10 17 3
41 7 55 10 14 3 37 7 53 10 74 14 180 38 266 61 53 14 103 27 111 29 43 10
256 77 283 89 41 18 57 19 58 4z m-2256 -273 c378 -25 690 -22 1008 10 32 3
62 3 67 0 4 -3 4 -23 -1 -45 -5 -22 -12 -57 -15 -78 -3 -20 -7 -48 -10 -62 -2
-14 -7 -41 -10 -60 -20 -121 -139 -636 -150 -649 -24 -29 -841 -18 -1104 14
-14 2 -31 3 -38 4 -7 1 -11 5 -8 9 3 5 8 31 11 58 4 27 8 60 10 74 5 31 15
101 20 137 2 15 10 73 19 128 8 55 18 118 21 140 4 22 8 51 11 65 2 14 6 45 9
70 3 25 8 52 10 60 3 8 7 39 10 69 7 68 10 72 48 65 18 -3 59 -7 92 -9z
m-2604 -58 c89 -78 245 -197 259 -197 5 0 10 -5 10 -10 0 -6 8 -14 18 -17 9
-4 43 -24 74 -45 31 -21 60 -38 63 -38 4 0 22 -12 41 -26 19 -15 34 -23 34
-20 0 4 13 -2 29 -13 16 -12 34 -21 39 -21 6 0 12 -3 14 -7 2 -5 28 -19 58
-33 30 -14 57 -27 60 -30 5 -5 194 -87 253 -109 15 -6 28 -16 28 -23 1 -7 3
-47 4 -88 3 -74 13 -236 19 -296 8 -77 17 -151 23 -178 l5 -29 -58 33 c-94 52
-280 181 -399 276 -127 101 -369 339 -475 467 -73 88 -94 136 -116 262 -2 17
-7 37 -9 45 -2 8 -6 32 -9 52 -2 20 -7 46 -11 58 -9 28 4 25 46 -13z m5393
-139 c-34 -56 -144 -200 -239 -313 -69 -82 -278 -290 -350 -349 -33 -27 -68
-57 -78 -65 -17 -14 -17 -11 2 39 11 30 34 106 50 169 17 62 31 114 33 115 49
25 110 60 178 103 47 29 94 59 105 66 10 6 24 17 31 22 6 6 24 19 40 30 31 22
151 123 199 167 33 31 40 34 29 16z m-654 -451 c0 -1 -5 -18 -11 -37 -5 -19
-12 -44 -14 -55 -14 -61 -81 -252 -94 -266 -24 -25 -207 -149 -220 -149 -6 0
-11 -4 -11 -9 0 -5 -19 -18 -42 -30 -24 -12 -59 -31 -78 -43 -121 -72 -394
-196 -550 -248 -142 -47 -301 -91 -379 -105 -19 -3 -38 -8 -43 -11 -16 -10 -8
15 35 108 57 122 107 252 160 417 l43 134 40 3 c41 4 207 24 236 29 9 2 38 7
65 10 114 17 475 103 504 121 5 3 17 7 26 9 38 8 110 35 233 90 67 29 100 40
100 32z m-3555 -57 c90 -29 369 -102 434 -114 14 -2 62 -11 106 -20 44 -8 94
-17 110 -20 66 -10 108 -16 148 -21 23 -3 58 -8 77 -10 19 -3 58 -8 85 -11 28
-3 59 -7 70 -9 11 -2 30 -4 42 -4 18 -1 21 -6 17 -33 -2 -18 -6 -49 -9 -68 -2
-19 -6 -48 -9 -65 -2 -16 -8 -50 -11 -75 -4 -25 -9 -54 -11 -65 -2 -11 -6 -46
-9 -79 -4 -33 -8 -62 -10 -65 -1 -3 -6 -35 -10 -71 -4 -36 -8 -67 -10 -70 -1
-3 -6 -32 -10 -65 -3 -33 -7 -60 -8 -61 -6 -4 -229 40 -312 61 -55 14 -107 28
-115 30 -8 2 -60 18 -115 36 -55 18 -102 33 -105 34 -3 1 -14 5 -25 10 -253
102 -415 181 -416 203 0 10 -2 26 -4 37 -1 11 -6 45 -9 75 -4 30 -9 69 -12 85
-6 39 -12 130 -19 279 l-6 119 23 -6 c13 -2 68 -19 123 -37z m1355 -236 c194
-13 307 -17 525 -17 138 0 285 2 328 5 50 4 77 2 77 -4 0 -19 -101 -310 -139
-403 -67 -160 -114 -247 -139 -256 -13 -5 -49 -12 -80 -15 -31 -3 -58 -7 -62
-9 -39 -24 -738 -25 -807 0 -7 2 -10 14 -8 27 3 12 7 40 10 63 4 22 8 54 11
70 3 17 7 46 9 65 3 19 7 51 10 70 3 19 7 53 10 75 3 22 7 51 10 65 3 14 8 45
10 70 3 25 7 56 10 70 3 14 8 48 11 75 4 28 9 54 11 58 3 5 40 6 82 2 42 -4
96 -9 121 -11z"/>
</g>
</svg>
